<mxfile host="app.diagrams.net" modified="2024-07-01T17:49:02.050Z" agent="Mozilla/5.0 (X11; Linux x86_64) AppleWebKit/537.36 (KHTML, like Gecko) Chrome/126.0.0.0 Safari/537.36" version="24.6.4" etag="uh8aeMmBPXxJm82716AO" type="github">
  <diagram name="Страница — 1" id="ONE9ILCw_c6uv-dhGzCV">
    <mxGraphModel>
      <root>
        <mxCell id="0" />
        <mxCell id="1" parent="0" />
      </root>
    </mxGraphModel>
  </diagram>
</mxfile>
